HIERARCHY
ROOT Hips
{
	OFFSET 0.00000 0.00000 0.00000
	CHANNELS 6 Xposition Yposition Zposition Zrotation Yrotation Xrotation 
	JOINT RightUpLegDummy
	{
		OFFSET 0 0 0
		CHANNELS 3 Zrotation Yrotation Xrotation
		JOINT RightUpLeg
		{
			OFFSET -3.52197 -3.41223 0.04002
			CHANNELS 3 Zrotation Yrotation Xrotation
			JOINT RightLeg
			{
				OFFSET 0.00006 -17.42390 1.60435
				CHANNELS 3 Zrotation Yrotation Xrotation
				JOINT RightFoot
				{
					OFFSET 0.06153 -16.50078 -1.63901
					CHANNELS 3 Zrotation Yrotation Xrotation
					JOINT RightToes
					{
						OFFSET 0.00298 -1.73825 3.34613
						CHANNELS 3 Zrotation Yrotation Xrotation
						End Site
						{
							OFFSET 0.00480 -0.05416 3.85043
						}
					}
				}
			}
		}
	}
	JOINT SpineDummy
	{
		OFFSET 0 0 0
		CHANNELS 3 Zrotation Yrotation Xrotation
		JOINT Spine
		{
			OFFSET 0.00000 4.68130 0.00000
			CHANNELS 3 Zrotation Yrotation Xrotation
			JOINT Spine1
			{
				OFFSET -0.00000 10.10138 0.05002
				CHANNELS 3 Zrotation Yrotation Xrotation
				JOINT HEadDummy
				{
					OFFSET 0 0 0
					CHANNELS 3 Zrotation Yrotation Xrotation
					JOINT Head
					{
						OFFSET -0.00000 3.43865 0.00438
						CHANNELS 3 Zrotation Yrotation Xrotation
						End Site
						{
							OFFSET -0.11417 5.02924 0.98962
						}
					}
				}
				JOINT LeftShoulder1Dummy
				{
					OFFSET 0 0 0
					CHANNELS 3 Zrotation Yrotation Xrotation
					JOINT LeftShoulder1
					{
						OFFSET 3.53937 -0.14262 -0.08662
						CHANNELS 3 Zrotation Yrotation Xrotation
						JOINT LeftArm
						{
							OFFSET 4.04833 -0.00133 0.12681
							CHANNELS 3 Zrotation Yrotation Xrotation
							JOINT LeftForeArm
							{
								OFFSET 10.33880 -0.01036 -0.55515
								CHANNELS 3 Zrotation Yrotation Xrotation
								JOINT LeftHand
								{
									OFFSET 8.69677 0.07543 0.40060
									CHANNELS 3 Zrotation Yrotation Xrotation
									End Site
									{
										OFFSET 5.28377 -0.21905 0.59205
									}
								}
							}
						}
					}
				}
				JOINT RightShoulderDummy
				{
					OFFSET 0 0 0
					CHANNELS 3 Zrotation Yrotation Xrotation
					JOINT RightShoulder
					{
						OFFSET -3.53937 -0.14262 -0.08660
						CHANNELS 3 Zrotation Yrotation Xrotation
						JOINT RightArm
						{
							OFFSET -4.04833 -0.00133 0.12683
							CHANNELS 3 Zrotation Yrotation Xrotation
							JOINT RightForeArm
							{
								OFFSET -10.37987 -0.01039 -0.55511
								CHANNELS 3 Zrotation Yrotation Xrotation
								JOINT RightHand
								{
									OFFSET -8.67398 0.07538 0.40058
									CHANNELS 3 Zrotation Yrotation Xrotation
									End Site
									{
										OFFSET -5.24810 -0.21916 0.59204
									}
								}
							}
						}
					}
				}
			}
		}
	}
	JOINT LeftUpLegDummy
	{
		OFFSET 0 0 0
		CHANNELS 3 Zrotation Yrotation Xrotation
		JOINT LeftUpLeg
		{
			OFFSET 3.52197 -3.41223 0.04002
			CHANNELS 3 Zrotation Yrotation Xrotation
			JOINT LeftLeg
			{
				OFFSET -0.00012 -17.42399 1.60337
				CHANNELS 3 Zrotation Yrotation Xrotation
				JOINT LeftFoot
				{
					OFFSET -0.09972 -16.50070 -1.63802
					CHANNELS 3 Zrotation Yrotation Xrotation
					JOINT LeftToes
					{
						OFFSET -0.01575 -1.73823 3.34611
						CHANNELS 3 Zrotation Yrotation Xrotation
						End Site
						{
							OFFSET 0.03150 -0.01868 3.85031
						}
					}
				}
			}
		}
	}
}
MOTION
Frames: 12
Frame Time: 0.033333
-1.1925 40.1021 -3.7559 -1.6534 -10.7818 -0.9630 0.0000 0.0000 0.0000 1.8330 -1.1970 -0.5408 -1.5284 -5.2260 4.2691 -0.9855 0.0554 -2.4586 0.0000 -0.0000 0.0000 0.0000 0.0000 0.0000 1.9434 -0.8124 1.3356 1.9421 -1.3012 0.7420 -0.0000 0.0000 -0.0000 -0.2314 -0.5790 -0.4810 -0.0000 0.0000 -0.0000 -34.2535 -2.8800 2.5695 -44.7480 -16.4089 -16.7565 -10.6940 5.0816 49.6086 14.8805 -4.1734 -1.1949 -0.0000 0.0000 -0.0000 34.6447 5.1269 3.5094 40.0735 6.0024 -16.2239 10.7811 -0.2979 25.2381 -10.8560 2.4058 -0.7093 0.0000 0.0000 0.0000 7.2906 4.4024 1.7953 3.4276 12.4454 4.8434 -3.2860 0.2568 -2.5930 0.0000 0.0000 -0.0000
-1.1931 40.1021 -3.7444 -1.6942 -10.7581 -0.9299 0.0000 0.0000 0.0000 1.8651 -1.1848 -0.5343 -1.5185 -5.2472 4.2375 -1.0134 0.0571 -2.4475 0.0000 -0.0000 0.0000 0.0000 0.0000 0.0000 2.0215 -0.8305 1.2766 1.9102 -1.3192 0.7981 -0.0000 0.0000 -0.0000 -0.0965 -0.5802 -0.4072 -0.0000 0.0000 -0.0000 -34.2205 -2.8827 2.5715 -44.7822 -16.4466 -16.7125 -10.7082 5.0771 49.7421 14.7564 -4.5185 -1.2260 -0.0000 0.0000 -0.0000 34.5849 5.1099 3.4973 40.1971 6.0389 -16.1536 10.8060 -0.2410 25.1168 -11.0704 2.2486 -0.7100 0.0000 0.0000 0.0000 7.3394 4.4361 1.7481 3.4184 12.3906 4.9121 -3.2735 0.2560 -2.6413 0.0000 0.0000 -0.0000
-1.1970 40.1021 -3.7184 -1.7217 -10.7536 -0.9366 0.0000 0.0000 0.0000 1.8873 -1.1848 -0.4664 -1.5091 -5.2414 4.2133 -1.0276 0.0581 -2.4652 0.0000 -0.0000 0.0000 0.0000 0.0000 0.0000 2.0726 -0.8255 1.2077 1.8983 -1.3172 0.9006 -0.0000 0.0000 -0.0000 0.1098 -0.6260 -0.2828 -0.0000 0.0000 -0.0000 -34.2261 -2.9116 2.5826 -44.7871 -16.4722 -16.6429 -10.7425 5.0719 49.8882 14.6196 -5.0087 -1.2725 -0.0000 0.0000 -0.0000 34.5274 5.0948 3.4862 40.3338 6.0553 -16.1166 10.8043 -0.1654 25.1993 -11.2609 2.2017 -0.7185 0.0000 0.0000 0.0000 7.3903 4.4876 1.7855 3.3813 12.3462 4.9481 -3.2360 0.2536 -2.7029 0.0000 0.0000 -0.0000
-1.2058 40.1021 -3.6893 -1.6936 -10.7862 -0.9991 0.0000 0.0000 0.0000 1.8645 -1.2054 -0.3705 -1.5091 -5.1907 4.2442 -1.0041 0.0568 -2.5263 0.0000 -0.0000 0.0000 0.0000 0.0000 0.0000 2.0154 -0.7883 1.1947 1.9355 -1.2855 0.9798 -0.0000 0.0000 -0.0000 0.2263 -0.6999 -0.2306 -0.0000 0.0000 -0.0000 -34.2636 -2.9497 2.6003 -44.7710 -16.4479 -16.5932 -10.7706 5.0715 49.8869 14.4754 -5.1913 -1.2809 -0.0000 0.0000 -0.0000 34.5522 5.1046 3.4923 40.3559 5.9800 -16.1284 10.7779 -0.0281 25.4298 -11.2768 2.4632 -0.7429 0.0000 0.0000 0.0000 7.3923 4.5227 1.9208 3.3293 12.3558 4.9100 -3.1810 0.2501 -2.7311 0.0000 0.0000 -0.0000
-1.2143 40.1003 -3.6652 -1.6386 -10.8413 -1.0576 0.0000 0.0000 0.0000 1.8185 -1.2287 -0.3171 -1.5134 -5.1170 4.3215 -0.9816 0.0556 -2.6063 0.0000 -0.0000 0.0000 0.0000 0.0000 0.0000 1.9046 -0.7487 1.2395 2.0038 -1.2527 0.9875 -0.0000 0.0000 -0.0000 0.2515 -0.7440 -0.2746 -0.0000 0.0000 -0.0000 -34.2641 -2.9539 2.6021 -44.8035 -16.4311 -16.6332 -10.7327 5.0720 49.8873 14.3303 -5.0752 -1.2540 -0.0000 0.0000 -0.0000 34.6041 5.1223 3.5040 40.3319 5.8479 -16.0863 10.7767 0.1862 25.5260 -11.2136 2.7248 -0.7620 0.0000 0.0000 0.0000 7.3611 4.5385 2.0373 3.2937 12.3992 4.8838 -3.1308 0.2469 -2.7450 0.0000 0.0000 -0.0000
-1.2187 40.0978 -3.6451 -1.6019 -10.9062 -1.0832 0.0000 0.0000 0.0000 1.7849 -1.2438 -0.3083 -1.5196 -5.0372 4.4051 -0.9964 0.0567 -2.6782 0.0000 -0.0000 0.0000 0.0000 0.0000 0.0000 1.8310 -0.7264 1.2987 2.0696 -1.2378 0.9482 -0.0000 0.0000 -0.0000 0.2815 -0.7574 -0.3172 -0.0000 0.0000 -0.0000 -34.2275 -2.9114 2.5826 -44.8752 -16.4757 -16.7590 -10.6312 5.0686 50.0416 14.2107 -4.9628 -1.2300 -0.0000 0.0000 -0.0000 34.6037 5.1261 3.5061 40.3723 5.7530 -15.9161 10.8328 0.3900 25.4076 -11.2586 2.6321 -0.7568 0.0000 0.0000 0.0000 7.3428 4.5604 2.0855 3.2748 12.4395 4.9270 -3.0933 0.2445 -2.7820 0.0000 0.0000 -0.0000
-1.2203 40.0954 -3.6252 -1.5939 -10.9506 -1.1003 0.0000 0.0000 0.0000 1.7718 -1.2564 -0.2894 -1.5249 -4.9779 4.4613 -1.0218 0.0586 -2.7334 0.0000 -0.0000 0.0000 0.0000 0.0000 0.0000 1.8163 -0.7252 1.3095 2.1188 -1.2457 0.9526 -0.0000 0.0000 -0.0000 0.3496 -0.7991 -0.2834 -0.0000 0.0000 -0.0000 -34.2319 -2.8608 2.5625 -44.8872 -16.5435 -16.8574 -10.5601 5.0657 50.1684 14.0340 -4.9484 -1.2125 -0.0000 0.0000 -0.0000 34.5712 5.1247 3.5048 40.4674 5.7314 -15.6691 10.9248 0.5160 25.2333 -11.5345 2.3408 -0.7493 0.0000 0.0000 0.0000 7.3566 4.6001 2.1132 3.2477 12.4386 4.9967 -3.0533 0.2419 -2.8358 0.0000 0.0000 -0.0000
-1.2223 40.0944 -3.6058 -1.5977 -10.9274 -1.1153 0.0000 0.0000 0.0000 1.7665 -1.2723 -0.2462 -1.5253 -4.9827 4.4788 -1.0118 0.0580 -2.7735 0.0000 -0.0000 0.0000 0.0000 0.0000 0.0000 1.8180 -0.7470 1.2336 2.1665 -1.2811 1.0479 -0.0000 0.0000 -0.0000 0.4162 -0.9028 -0.2007 -0.0000 0.0000 -0.0000 -34.3117 -2.8462 2.5618 -44.7901 -16.5651 -16.8627 -10.5741 5.0691 50.0472 13.7781 -4.8699 -1.1806 -0.0000 0.0000 -0.0000 34.5622 5.1327 3.5044 40.5413 5.7462 -15.4876 10.9942 0.5736 25.1591 -11.9418 2.2760 -0.7705 0.0000 0.0000 0.0000 7.3796 4.6338 2.1385 3.2128 12.3775 5.0344 -3.0046 0.2388 -2.8725 0.0000 0.0000 -0.0000
-1.2260 40.0937 -3.5884 -1.5961 -10.8445 -1.1037 0.0000 0.0000 0.0000 1.7573 -1.2886 -0.2227 -1.5212 -5.0464 4.4793 -0.9784 0.0560 -2.8067 0.0000 -0.0000 0.0000 0.0000 0.0000 0.0000 1.8037 -0.7806 1.1165 2.2213 -1.3301 1.1492 -0.0000 0.0000 -0.0000 0.4693 -1.0311 -0.1180 -0.0000 0.0000 -0.0000 -34.3957 -2.8680 2.5760 -44.6645 -16.5358 -16.8607 -10.5971 5.0741 49.8717 13.6862 -4.6778 -1.1511 -0.0000 0.0000 -0.0000 34.5781 5.1434 3.5103 40.5587 5.7640 -15.4722 11.0018 0.5605 25.1825 -12.2018 2.5349 -0.8130 0.0000 0.0000 0.0000 7.3823 4.6371 2.1303 3.1960 12.2941 5.0392 -2.9653 0.2362 -2.8845 0.0000 0.0000 -0.0000
-1.2303 40.0934 -3.5732 -1.5807 -10.7758 -1.0733 0.0000 0.0000 0.0000 1.7390 -1.3042 -0.2391 -1.5235 -5.0985 4.5042 -0.9699 0.0556 -2.8474 0.0000 -0.0000 0.0000 0.0000 0.0000 0.0000 1.7826 -0.7997 1.0602 2.2595 -1.3570 1.1372 -0.0000 0.0000 -0.0000 0.5162 -1.1152 -0.0488 -0.0000 0.0000 -0.0000 -34.4053 -2.8926 2.5866 -44.6124 -16.4916 -16.9443 -10.5408 5.0715 49.9825 13.9710 -4.4957 -1.1555 -0.0000 0.0000 -0.0000 34.6156 5.1499 3.5163 40.5072 5.7746 -15.5805 10.9693 0.4743 25.1826 -12.1362 2.8747 -0.8415 0.0000 0.0000 0.0000 7.3608 4.6192 2.1050 3.1995 12.2528 5.0313 -2.9499 0.2352 -2.8911 0.0000 0.0000 -0.0000
-1.2335 40.0932 -3.5589 -1.5618 -10.7477 -1.0582 0.0000 0.0000 0.0000 1.7190 -1.3198 -0.2572 -1.5282 -5.1132 4.5550 -0.9852 0.0567 -2.8979 0.0000 -0.0000 0.0000 0.0000 0.0000 0.0000 1.7831 -0.8038 1.0853 2.2603 -1.3589 1.0398 -0.0000 0.0000 -0.0000 0.5162 -1.1104 -0.0092 -0.0000 0.0000 -0.0000 -34.3659 -2.8942 2.5847 -44.6208 -16.4487 -17.0555 -10.4501 5.0641 50.2641 14.4328 -4.3672 -1.1803 -0.0000 0.0000 -0.0000 34.6974 5.1618 3.5283 40.3792 5.7618 -15.6829 10.9477 0.4047 25.0539 -11.8600 3.0825 -0.8414 0.0000 0.0000 0.0000 7.3396 4.6072 2.1045 3.2002 12.2455 5.0275 -2.9497 0.2352 -2.9062 0.0000 0.0000 -0.0000
-1.2347 40.0933 -3.5438 -1.5679 -10.6883 -1.0462 0.0000 0.0000 0.0000 1.7202 -1.3279 -0.2464 -1.5318 -5.1667 4.5717 -0.9797 0.0565 -2.9368 0.0000 -0.0000 0.0000 0.0000 0.0000 0.0000 1.8228 -0.8278 1.0831 2.2473 -1.3821 1.0052 -0.0000 0.0000 -0.0000 0.4372 -1.0125 -0.0105 -0.0000 0.0000 -0.0000 -34.3542 -2.8653 2.5722 -44.6103 -16.4196 -17.0815 -10.4341 5.0640 50.2739 14.7516 -4.2419 -1.1924 -0.0000 0.0000 -0.0000 34.7938 5.1786 3.5436 40.2279 5.7255 -15.7189 10.9502 0.4357 24.8405 -11.6290 3.1086 -0.8268 0.0000 0.0000 0.0000 7.3473 4.6112 2.0950 3.1921 12.1873 5.0434 -2.9523 0.2354 -2.9324 0.0000 0.0000 -0.0000
